<svg width="23" height="23" viewBox="0 0 23 23" fill="none" xmlns="http://www.w3.org/2000/svg">
<path d="M20.5115 0.5625H1.75659C0.897217 0.5625 0.198975 1.27051 0.198975 2.13965V20.8604C0.198975 21.7295 0.897217 22.4375 1.75659 22.4375H20.5115C21.3708 22.4375 22.074 21.7295 22.074 20.8604V2.13965C22.074 1.27051 21.3708 0.5625 20.5115 0.5625ZM6.8103 19.3125H3.56812V8.87305H6.81519V19.3125H6.8103ZM5.18921 7.44727C4.14917 7.44727 3.30933 6.60254 3.30933 5.56738C3.30933 4.53223 4.14917 3.6875 5.18921 3.6875C6.22437 3.6875 7.06909 4.53223 7.06909 5.56738C7.06909 6.60742 6.22925 7.44727 5.18921 7.44727ZM18.9636 19.3125H15.7214V14.2344C15.7214 13.0234 15.697 11.4658 14.0369 11.4658C12.3474 11.4658 12.0886 12.7842 12.0886 14.1465V19.3125H8.84644V8.87305H11.9568V10.2988H12.0007C12.4353 9.47852 13.4949 8.61426 15.072 8.61426C18.3533 8.61426 18.9636 10.7773 18.9636 13.5898V19.3125Z" fill="#2E3553"/>
</svg>
