<?xml version="1.0" encoding="UTF-8"?><svg id="Layer_2" xmlns="http://www.w3.org/2000/svg" xmlns:xlink="http://www.w3.org/1999/xlink" viewBox="0 0 215.3 215.32"><defs><linearGradient id="linear-gradient" x1="39.65" y1="199.81" x2="37.98" y2="188.84" gradientUnits="userSpaceOnUse"><stop offset="0" stop-color="#c49179"/><stop offset=".55" stop-color="#a37865"/><stop offset="1" stop-color="#5e4538"/></linearGradient><linearGradient id="linear-gradient-2" x1="1517.8" y1="200.6" x2="1516.14" y2="189.64" gradientTransform="translate(1575.06) rotate(-180) scale(1 -1)" xlink:href="#linear-gradient"/><linearGradient id="linear-gradient-3" x1="-584.03" y1="-63.04" x2="-585.88" y2="-76.29" gradientTransform="translate(-499.92 295.34) rotate(163.42) scale(1 -1)" xlink:href="#linear-gradient"/><linearGradient id="linear-gradient-4" x1="-891.88" y1="16.18" x2="-887.4" y2="16.18" gradientTransform="translate(-784.8 -255.4) rotate(-161.31) scale(1 -1)" gradientUnits="userSpaceOnUse"><stop offset=".55" stop-color="#a37865"/><stop offset="1" stop-color="#5e4538"/></linearGradient><linearGradient id="linear-gradient-5" x1="-1032.43" y1="-6.32" x2="-1027.95" y2="-6.32" gradientTransform="translate(1057.49 21.09) rotate(-1.65)" xlink:href="#linear-gradient-4"/><linearGradient id="linear-gradient-6" x1="-531.74" y1="-46.12" x2="-538.66" y2="-95.64" gradientTransform="translate(-456.81 258.1) rotate(165.19) scale(1 -1.09)" gradientUnits="userSpaceOnUse"><stop offset=".21" stop-color="#c49179"/><stop offset=".55" stop-color="#a37865"/><stop offset=".67" stop-color="#a07663"/><stop offset=".72" stop-color="#99705e"/><stop offset=".76" stop-color="#8c6756"/><stop offset=".8" stop-color="#7a594a"/><stop offset=".83" stop-color="#62483b"/><stop offset=".84" stop-color="#5e4538"/></linearGradient><clipPath id="clippath"><path d="m31.49,42.87c0,1.42,1.06.25,2.34.26s2.31,1.16,2.31-.25c0-1.42-1.04-2.57-2.33-2.57s-2.33,1.15-2.33,2.57Z" fill="#fff" stroke="#1f0d05" stroke-miterlimit="10" stroke-width=".25"/></clipPath><radialGradient id="radial-gradient" cx="33.82" cy="42.06" fx="33.82" fy="42.06" r="1.81" gradientUnits="userSpaceOnUse"><stop offset=".04" stop-color="#684810"/><stop offset=".29" stop-color="#401e10"/><stop offset=".63" stop-color="#1f0d05"/><stop offset=".93" stop-color="#120703"/></radialGradient><clipPath id="clippath-1"><path d="m44.45,42.87c0,1.42,1.06.25,2.34.26s2.31,1.16,2.31-.25c0-1.42-1.04-2.57-2.33-2.57s-2.33,1.15-2.33,2.57Z" fill="#fff" stroke="#1f0d05" stroke-miterlimit="10" stroke-width=".25"/></clipPath><radialGradient id="radial-gradient-2" cx="46.78" fx="46.78" xlink:href="#radial-gradient"/><linearGradient id="linear-gradient-7" x1="8.99" y1="90.26" x2="34.45" y2="90.26" xlink:href="#linear-gradient"/><linearGradient id="linear-gradient-8" x1="19.62" y1="108.34" x2="23.55" y2="108.34" xlink:href="#linear-gradient"/><linearGradient id="linear-gradient-9" x1="26.54" y1="110.02" x2="30.86" y2="106.78" gradientUnits="userSpaceOnUse"><stop offset="0" stop-color="#c49179"/><stop offset="0" stop-color="#a37865"/><stop offset=".34" stop-color="#5e4538"/></linearGradient><linearGradient id="linear-gradient-10" x1="1356.34" y1="87.08" x2="1381.8" y2="87.08" gradientTransform="translate(1433.07) rotate(-180) scale(1 -1)" xlink:href="#linear-gradient"/><linearGradient id="linear-gradient-11" x1="1366.97" y1="105.16" x2="1370.9" y2="105.16" gradientTransform="translate(1433.07) rotate(-180) scale(1 -1)" xlink:href="#linear-gradient"/><linearGradient id="linear-gradient-12" x1="1373.89" y1="106.84" x2="1378.21" y2="103.6" gradientTransform="translate(1433.07) rotate(-180) scale(1 -1)" xlink:href="#linear-gradient-9"/></defs><g id="Layer_5"><polygon points="95.17 214.64 0 215.32 8.03 190.49 85.49 190.49 95.17 214.64" fill="#eff4f5"/></g><g id="Layer_9"><ellipse cx="44.54" cy="17.28" rx="5.06" ry="5.11" fill="#1f0d05"/><ellipse cx="47.75" cy="10.49" rx="6.86" ry="6.93" fill="#1f0d05"/><circle cx="27.05" cy="37.13" r="4.16" fill="#1f0d05"/><ellipse cx="29.22" cy="41.94" rx="4.16" ry="4.2" fill="#1f0d05"/><ellipse cx="52.7" cy="37.09" rx="4.16" ry="4.2" fill="#1f0d05"/><ellipse cx="49.91" cy="42.39" rx="4.16" ry="4.2" fill="#1f0d05"/><path d="m42.07,198.07s-3.72,2.32-7.15-3.48l-.79-2.96s-3.88-4.52-3.83-.13.72,4.57.72,4.57c0,0-4.91,3.27-7.46,3.11-.94-.65-7.7,3.96,1.42,6.98l5.21-.16c.54-.02,1.07-.21,1.5-.54l.54-.42c.27-.21.6-.34.94-.38l7.15-.74c.41-.04.8-.23,1.07-.54.78-.88,2.08-2.87.68-5.31Z" fill="#a7c1ea"/><path d="m42.44,192.03c.05.8-1.59,3.73-.9,5.77,0,0-6.68,1.02-6.84-4.72l1.15-3.83,6.59,2.78Z" fill="url(#linear-gradient)"/><path d="m54.46,192.83c-.05.8,1.59,3.73.9,5.77,0,0,6.68,1.02,6.84-4.72l-1.15-3.83-6.59,2.78Z" fill="url(#linear-gradient-2)"/><path d="m24.49,103.66l34.47-.8s5.36,16.19,2.3,46.32c0,0-2.19,38.04.95,41.11,0,0-.9,2.81-8.2,2.81,0,0-8.84-12.51-10.37-67.15,0,0-1.79,62.04,0,65.62,0,0-4.07,2.3-7.65-.77s-1.5.26-1.01-.51-13.3-61.53-10.49-69.45v-17.17Z" fill="#2e3553"/><path d="m49.94,61.17c.83.35-2.25,4.16-8.65,5.1,0,0-9.07,1.52-9.59-3.65,0,0,4.62-1.19,3.06-6.72,0,0,7.07,2.65,10.76-.94,0,0-.22,5.51,4.43,6.21Z" fill="url(#linear-gradient-3)"/><path d="m50.4,44.28c-.64,1.88-3.04,2.77-1.15,3.41s3.93-.37,4.56-2.26-.37-3.93-2.26-4.56-.52,1.53-1.15,3.41Z" fill="url(#linear-gradient-4)"/><path d="m30,44.32c.06,1.99,2.09,3.54.1,3.6s-3.64-1.51-3.7-3.49,1.51-3.64,3.49-3.7c1.99-.06.05,1.61.1,3.6Z" fill="url(#linear-gradient-5)"/><path d="m27.43,39.79l-.08-8.41c-.02-2.03,1.49-3.62,3.38-3.56l17.3.57c1.89.06,3.44,1.76,3.46,3.79,0,0,.01,8.78-.09,8.91l-.6,4.14c-.08.53-.18,1.04-.31,1.56-.4,1.56-1.3,4.92-1.59,5.09-.37.22-3.21,6.24-9.17,5.71,0,0-3.5,1.04-7.65-4.43l-1.98-4.17c-.3-.63-.54-1.28-.71-1.95,0,0-1.93-7.08-1.94-7.24Z" fill="url(#linear-gradient-6)"/><path d="m34.98,35.27c-4.12.94-5.27,1.85-5.27,1.85" fill="none" stroke="#000" stroke-linecap="round" stroke-miterlimit="10" stroke-width="2"/><path d="m44.83,35.18c4.28.63,5.08,1.23,5.08,1.23" fill="none" stroke="#000" stroke-linecap="round" stroke-miterlimit="10" stroke-width="2"/><path d="m41.83,45.82s.09,2.22-1.81,1.89c0,0-1.76.07-2-1.16,0,0-1.16,2.1,1.99,1.99s1.82-2.73,1.82-2.73Z" fill="#694635"/><path d="m50.53,45.58s-3.67,3.73-8.47.6c0,0,1.18,4.24,4.7,4,3.51-.24,4.17-2.69,3.78-4.6Z" fill="#694635"/><path d="m37.65,46.3s-4.11,3.24-8.48-.47c0,0,.65,4.36,4.16,4.56s4.47-2.15,4.32-4.09Z" fill="#694635"/><circle cx="46.35" cy="42.81" r="5" transform="translate(-5.29 6.56) rotate(-7.66)" fill="none" stroke="#000" stroke-miterlimit="10"/><circle cx="33.6" cy="43.05" r="5" transform="translate(-5.44 4.86) rotate(-7.66)" fill="none" stroke="#000" stroke-miterlimit="10"/><path d="m38.55,42.38s1.19-.96,2.82,0" fill="none" stroke="#000" stroke-miterlimit="10"/><path d="m38.1,45.23c0,.08-.01.17-.02.25-.08,1.62.78,2.32,1.94,2.23,1.62-.12,1.89-.43,1.97-2.05,0-.08,0-.17,0-.25" fill="none" stroke="#000" stroke-linecap="round" stroke-miterlimit="10" stroke-width=".5"/><line x1="47.39" y1="46.48" x2="49.69" y2="43.9" fill="none" stroke="#fff" stroke-linecap="round" stroke-miterlimit="10" stroke-width=".75"/><line x1="34.98" y1="46.39" x2="37" y2="43.77" fill="#a37762" stroke="#fff" stroke-linecap="round" stroke-miterlimit="10" stroke-width=".75"/><path d="m37.52,51.69c-.55.7,1.59,1.61,2.87,1.62s2.68-.78,2.69-1.66-1.38-1.54-2.65-1.55-2.28.79-2.91,1.59Z" fill="#a06c55"/><path d="m37.32,52.38c-.01.89,1.59,1.61,2.87,1.62s2.68-.78,2.69-1.66-1.38-1.54-2.65-1.55-2.9.71-2.91,1.59Z" fill="#6a4837"/><path d="m43.02,51.71s-1.73-3.34-5.21-.27c-.2.14-.06.09-.26.24.7-.22,1.35-.25,2.55-.28,1.2-.03,2.2.14,2.92.32Z" fill="none" stroke="#000" stroke-miterlimit="10" stroke-width=".25"/><path d="m43.43,51.74l-.42-.03s-.08,1.42-2.05,2.12c-1.58.56-3.39-.38-3.65-2.04,0-.02,0-.04,0-.07" fill="none" stroke="#000" stroke-miterlimit="10" stroke-width=".5"/><ellipse cx="36.84" cy="51.81" rx=".59" ry=".34" transform="translate(-3.19 2.43) rotate(-3.62)"/><path d="m42.67,52.09c.14.25.58.29.99.07.41-.22.63-.6.5-.86-.14-.25-.58-.29-.99-.07-.41.22-.63.6-.5.86Z"/><path d="m31.49,42.87c0,1.42,1.06.25,2.34.26s2.31,1.16,2.31-.25c0-1.42-1.04-2.57-2.33-2.57s-2.33,1.15-2.33,2.57Z" fill="#fff"/><g clip-path="url(#clippath)"><circle cx="33.82" cy="42.06" r="1.81" fill="url(#radial-gradient)" stroke="#1f0d05" stroke-miterlimit="10" stroke-width=".25"/><circle cx="33.9" cy="42.01" r=".6" stroke="#1f0d05" stroke-miterlimit="10" stroke-width=".25"/><circle cx="32.96" cy="42.39" r=".31" fill="#fff"/></g><path d="m31.49,42.87c0,1.42,1.06.25,2.34.26s2.31,1.16,2.31-.25c0-1.42-1.04-2.57-2.33-2.57s-2.33,1.15-2.33,2.57Z" fill="none" stroke="#1f0d05" stroke-miterlimit="10" stroke-width=".25"/><path d="m44.45,42.87c0,1.42,1.06.25,2.34.26s2.31,1.16,2.31-.25c0-1.42-1.04-2.57-2.33-2.57s-2.33,1.15-2.33,2.57Z" fill="#fff"/><g clip-path="url(#clippath-1)"><circle cx="46.78" cy="42.06" r="1.81" fill="url(#radial-gradient-2)" stroke="#1f0d05" stroke-miterlimit="10" stroke-width=".25"/><circle cx="46.86" cy="42.01" r=".6" stroke="#1f0d05" stroke-miterlimit="10" stroke-width=".25"/><circle cx="46.04" cy="42.39" r=".31" fill="#fff"/></g><path d="m44.45,42.87c0,1.42,1.06.25,2.34.26s2.31,1.16,2.31-.25c0-1.42-1.04-2.57-2.33-2.57s-2.33,1.15-2.33,2.57Z" fill="none" stroke="#1f0d05" stroke-miterlimit="10" stroke-width=".25"/><path d="m61.77,109.08s-6.01-12.12-5.63-22c0,0,5.4,1.29,4.38-5.03,0,0,5.28-3.04,3.24-7.82,0,0,4.24-1.27,3.12-7.77l-17.03-5.97s-7.97,11.18-18.15,2.38l-16.82,7.08s-.51,2.3,2.38,5.17c0,0-.17,5.93,4.43,6.89,0,0-2.19,4.66,4.34,6.71,0,0,.81,12.39-2.94,23.23,0,0,28.6,5.05,38.68-2.87Z" fill="#e4a7a3"/><path d="m19.06,92.25l9.19-12.25,6.19-13.52s-14.36.43-14.86,9.11c0,0-11,15.76-10.59,19.85s5.96,9.04,7.42,13.34,2.58,4.91,4.92,5.23,3.29-1.07,3.29-1.07l.39-1.59c.09-.35.59-.5.9-.26.78.58,1.93,1.42,2.04,1.42.17,0,2.04,0,1.25-.92,0,0,1.64.29,1.29-.71,0,0,2.13.46,1.88-.43s-1.66-3.39-1.66-3.39l-2.51-2.24.67-.68,1.36.21c.14.02.27.09.37.18l1.9,1.92s.88.25,1.42-.21c.38-.33-.21-.83-.6-1.1-.19-.13-.32-.31-.38-.51l-.37-1.22c-.12-.27-.4-.47-.74-.52l-2.73-.4c-.3-.04-.61.02-.85.18l-1.37.9-1.42.32-.38.92-1.38.57-.17.92-.87.15c-.29.05-.58-.1-.67-.34l-1.08-3.1c-.22-.43-.36-.89-.42-1.36-.25-1.98-.98-7.55-1.55-8.71-.11-.23-.07-.5.09-.72Z" fill="url(#linear-gradient-7)"/><path d="m19.62,110.36c.13-.13,2.09-1.84,2.09-1.84,0,0-.28-1.61,1.83-2.2" fill="url(#linear-gradient-8)"/><line x1="24.88" y1="107.51" x2="29.22" y2="111.58" fill="#42210b"/><polyline points="30.51 110.87 28.13 107.67 26.38 106.32" fill="url(#linear-gradient-9)"/><path d="m66.65,89.07l-9.19-12.25-6.19-13.52s14.36.43,14.86,9.11c0,0,11,15.76,10.59,19.85s-5.96,9.04-7.42,13.34-2.58,4.91-4.92,5.23-3.29-1.07-3.29-1.07l-.39-1.59c-.09-.35-.59-.5-.9-.26-.78.58-1.93,1.42-2.04,1.42-.17,0-2.04,0-1.25-.92,0,0-1.64.29-1.29-.71,0,0-2.13.46-1.88-.43s1.66-3.39,1.66-3.39l2.51-2.24-.67-.68-1.36.21c-.14.02-.27.09-.37.18l-1.9,1.92s-.88.25-1.42-.21c-.38-.33.21-.83.6-1.1.19-.13.32-.31.38-.51l.37-1.22c.12-.27.4-.47.74-.52l2.73-.4c.3-.04.61.02.85.18l1.37.9,1.42.32.38.92,1.38.57.17.92.87.15c.29.05.58-.1.67-.34l1.08-3.1c.22-.43.36-.89.42-1.36.25-1.98.98-7.55,1.55-8.71.11-.23.07-.5-.09-.72Z" fill="url(#linear-gradient-10)"/><path d="m66.09,107.18c-.13-.13-2.09-1.84-2.09-1.84,0,0,.28-1.61-1.83-2.2" fill="url(#linear-gradient-11)"/><polyline points="55.21 107.69 57.59 104.49 59.34 103.14" fill="url(#linear-gradient-12)"/><path d="m44.09,64.83c-3.26,1.71-7.8,2.31-12.89-2.13l-16.82,7.14s-.51,2.31,2.38,5.21c0,0-.17,5.98,4.43,6.94,0,0-1.15,4.6,5.37,6.67,0,0,.25,1.41.39,5.28" fill="#e4a7a3"/><path d="m54.94,86.63s5.08,1.04,5.57-4.57c0,0,6.17-2.07,3.89-7.43,0,0,5.33-3.96,3.22-7.73l-16.99-6.19,4.3,25.91Z" fill="#e4a7a3"/><path d="m41.65,195.43s-3.55,3.34-6.92-2.04l-.76-2.76s-3.83-4.18-3.82-.08.67,4.26.67,4.26c0,0-4.94,3.1-7.48,2.99,0,0-6.52,4.56,1.35,6.51l5.21-.21c.54-.02,1.06-.2,1.49-.52l.54-.39c.28-.2.61-.33.95-.37l7.73-.83c.95.23,4.36-3.14,1.04-6.56Z" fill="#09183d"/><path d="m54.98,197.72s3.43,2.72,7.49-2.65l1.12-2.85s4.36-4.06,3.82.3-1.23,4.46-1.23,4.46c0,0,4.52,3.8,7.06,3.93,1.01-.54,7.21,4.8-2.19,6.78l-5.16-.75c-.54-.08-1.04-.32-1.43-.7l-.49-.48c-.25-.24-.56-.41-.89-.48l-7.02-1.54c-.41-.09-.76-.32-1-.66-.67-.96-1.74-3.09-.08-5.36Z" fill="#a7c1ea"/><path d="m55.69,195.14s3.16,3.72,7.11-1.25l1.06-2.66s4.27-3.73,3.81.35-1.14,4.16-1.14,4.16c0,0,4.56,3.64,7.1,3.81,0,0,5.97,5.26-2.07,6.32l-5.16-.79c-.53-.08-1.03-.32-1.42-.68l-.49-.45c-.25-.23-.57-.4-.9-.47l-7.59-1.69c-.97.12-3.98-3.61-.3-6.64Z" fill="#09183d"/><ellipse cx="32.34" cy="27.61" rx="5.47" ry="5.52" fill="#1f0d05"/><circle cx="39.91" cy="25.43" r="5.69" fill="#1f0d05"/><ellipse cx="33.82" cy="27.26" rx="8.78" ry="5.52" transform="translate(-7.41 13.6) rotate(-20.54)" fill="#1f0d05"/><ellipse cx="45.57" cy="26.92" rx="5.52" ry="7.64" transform="translate(3.89 59.54) rotate(-68.62)" fill="#1f0d05"/><ellipse cx="46.78" cy="18.37" rx="5.47" ry="5.52" fill="#1f0d05"/><ellipse cx="40.1" cy="17.72" rx="5.47" ry="5.52" fill="#1f0d05"/><ellipse cx="33.08" cy="16.57" rx="5.47" ry="5.52" fill="#1f0d05"/><ellipse cx="31.49" cy="16.87" rx="5.47" ry="5.52" fill="#1f0d05"/><ellipse cx="30.97" cy="10.07" rx="5.47" ry="5.52" fill="#1f0d05"/><ellipse cx="34.63" cy="7.96" rx="5.47" ry="5.52" fill="#1f0d05"/><ellipse cx="40.64" cy="5.52" rx="5.47" ry="5.52" fill="#1f0d05"/><ellipse cx="38.07" cy="10.35" rx="5.47" ry="5.52" fill="#1f0d05"/><ellipse cx="44.2" cy="9.08" rx="5.47" ry="5.52" fill="#1f0d05"/><ellipse cx="51.52" cy="30.26" rx="4.16" ry="4.2" fill="#1f0d05"/><ellipse cx="27.86" cy="31.12" rx="4.16" ry="4.2" fill="#1f0d05"/><rect x="105.71" y="22.06" width="109.59" height="25.24" fill="#2e3553"/><path d="m117.31,37.48c-.51.69-1.27,1.16-2.29,1.16-1.71,0-2.83-1.55-2.83-3.6s1.17-3.62,2.86-3.62c.96,0,1.68.36,2.23,1.12l-.62.47c-.45-.61-.87-.88-1.63-.88-1.2,0-2.06,1.19-2.06,2.89s.89,2.91,2.07,2.91c.76,0,1.28-.34,1.73-.92l.54.47Z" fill="#eff4f5"/><path d="m121.56,33.3l-.19.76c-.21-.12-.44-.2-.79-.2-.73,0-1.14.59-1.14,1.59v3.08h-.75v-5.25h.75v.65c.24-.42.74-.76,1.3-.76.39,0,.64.05.82.13Z" fill="#eff4f5"/><path d="m126.5,35.75c0,.18,0,.29-.03.41h-3.5c.07,1.12.6,1.83,1.46,1.83.61,0,.97-.18,1.45-.5l.35.54c-.63.4-1.09.61-1.88.61-.96,0-2.13-.7-2.13-2.76,0-1.67.92-2.71,2.17-2.71,1.37,0,2.11,1.08,2.11,2.58Zm-.7-.2c-.06-1.02-.5-1.73-1.42-1.73-.78,0-1.32.56-1.41,1.73h2.83Z" fill="#eff4f5"/><path d="m131.59,38.53h-.75v-.64c-.37.4-.89.75-1.64.75-.82,0-1.68-.41-1.68-1.68,0-1.18.97-1.68,2.01-1.68.53,0,1,.13,1.31.3v-.62c0-.78-.37-1.16-1.14-1.16-.55,0-1,.15-1.43.4l-.28-.61c.46-.25,1.08-.42,1.76-.42,1.13,0,1.84.48,1.84,1.7v3.66Zm-.75-1.29v-1.06c-.34-.19-.71-.3-1.35-.3-.77,0-1.23.37-1.23,1.03,0,.78.43,1.12,1.07,1.12.68,0,1.19-.35,1.51-.79Z" fill="#eff4f5"/><path d="m135.48,33.91h-1.3v3.42c0,.47.13.63.53.63.3,0,.5-.05.74-.15l-.05.65c-.29.12-.57.18-.97.18-.65,0-1-.32-1-1.19v-3.54h-.65v-.63h.65v-1.62l.75-.42v2.04h1.3v.63Z" fill="#eff4f5"/><path d="m137.91,31.81c0,.29-.24.53-.52.53-.31,0-.55-.24-.55-.53s.24-.54.55-.54c.28,0,.52.24.52.54Zm-.16,6.72h-.75v-5.25h.75v5.25Z" fill="#eff4f5"/><path d="m143.45,35.75c0,.18,0,.29-.03.41h-3.5c.07,1.12.6,1.83,1.46,1.83.61,0,.97-.18,1.45-.5l.35.54c-.63.4-1.09.61-1.88.61-.96,0-2.13-.7-2.13-2.76,0-1.67.92-2.71,2.17-2.71,1.37,0,2.11,1.08,2.11,2.58Zm-.7-.2c-.06-1.02-.5-1.73-1.42-1.73-.78,0-1.32.56-1.41,1.73h2.83Z" fill="#eff4f5"/><path d="m147.06,32.07c-.17-.08-.37-.12-.61-.12-.31,0-.54.11-.54.55v.78h1.03v.63h-1.03v4.62h-.75v-4.62h-.72v-.63h.72v-.72c0-.94.51-1.29,1.24-1.29.3,0,.48.03.66.09v.71Z" fill="#eff4f5"/><rect x="105.71" y="52.11" width="109.59" height="25.24" fill="#2e3553"/><path d="m118,65.07c0,2.11-1.18,3.62-2.92,3.62s-2.89-1.49-2.89-3.6,1.17-3.62,2.91-3.62,2.9,1.49,2.9,3.6Zm-.78.02c0-1.76-.93-2.91-2.15-2.91s-2.1,1.13-2.1,2.89.92,2.91,2.14,2.91,2.11-1.13,2.11-2.89Z" fill="#eff4f5"/><path d="m123.73,65.92c0,1.78-1.02,2.77-2.3,2.77s-2.26-.95-2.26-2.73,1.02-2.74,2.3-2.74,2.26.92,2.26,2.7Zm-.75.02c0-1.38-.62-2.07-1.53-2.07s-1.52.69-1.52,2.07.61,2.1,1.52,2.1,1.53-.72,1.53-2.1Z" fill="#eff4f5"/><path d="m129.04,68.11c0,1.58-.71,2.34-2.66,2.4l-.24-.57c1.75-.05,2.15-.51,2.15-1.73v-.27c-.37.4-.87.75-1.58.75-1.05,0-1.88-.8-1.88-2.65s.88-2.82,1.98-2.82c.66,0,1.11.28,1.48.7v-.59h.75v4.78Zm-.75-.83v-2.62c-.29-.44-.8-.79-1.42-.79-.87,0-1.3.75-1.3,2.16,0,1.32.5,2.01,1.33,2.01.56,0,1.02-.3,1.39-.76Z" fill="#eff4f5"/><path d="m137.58,65.92c0,1.78-1.02,2.77-2.3,2.77s-2.26-.95-2.26-2.73,1.02-2.74,2.3-2.74,2.26.92,2.26,2.7Zm-.75.02c0-1.38-.62-2.07-1.53-2.07s-1.52.69-1.52,2.07.61,2.1,1.52,2.1,1.53-.72,1.53-2.1Z" fill="#eff4f5"/><path d="m143.17,65.87c0,1.86-.88,2.82-1.98,2.82-.66,0-1.11-.28-1.48-.7v2.1l-.75.42v-7.18h.75v.64c.37-.4.87-.75,1.58-.75,1.05,0,1.88.8,1.88,2.65Zm-.74.01c0-1.32-.5-2.01-1.33-2.01-.56,0-1.02.3-1.39.76v2.62c.29.44.8.79,1.42.79.87,0,1.3-.75,1.3-2.16Z" fill="#eff4f5"/><path d="m151.08,68.58h-.75v-.64c-.37.4-.87.75-1.58.75-1.05,0-1.88-.8-1.88-2.65s.88-2.82,1.98-2.82c.66,0,1.11.28,1.48.7v-2.21l.75-.42v7.29Zm-.75-1.3v-2.62c-.29-.44-.8-.79-1.42-.79-.87,0-1.3.75-1.3,2.16,0,1.32.5,2.01,1.33,2.01.56,0,1.02-.3,1.39-.76Z" fill="#eff4f5"/><path d="m156.74,65.8c0,.18,0,.29-.03.41h-3.5c.07,1.12.6,1.83,1.46,1.83.61,0,.97-.18,1.45-.5l.35.54c-.63.4-1.09.61-1.88.61-.96,0-2.13-.7-2.13-2.76,0-1.67.92-2.71,2.17-2.71,1.37,0,2.11,1.08,2.11,2.58Zm-.7-.2c-.06-1.02-.5-1.73-1.42-1.73-.78,0-1.32.56-1.41,1.73h2.83Z" fill="#eff4f5"/><path d="m160.32,63.96h-1.3v3.42c0,.47.13.63.53.63.3,0,.5-.05.74-.15l-.05.65c-.29.12-.57.18-.97.18-.65,0-1-.32-1-1.19v-3.54h-.65v-.63h.65v-1.62l.75-.42v2.04h1.3v.63Z" fill="#eff4f5"/><path d="m165.39,68.58h-.75v-.64c-.37.4-.89.75-1.64.75-.82,0-1.68-.41-1.68-1.68,0-1.18.97-1.68,2.01-1.68.53,0,1,.13,1.31.3v-.62c0-.78-.37-1.16-1.14-1.16-.55,0-1,.15-1.43.4l-.28-.61c.46-.25,1.08-.42,1.76-.42,1.13,0,1.84.48,1.84,1.7v3.66Zm-.75-1.29v-1.06c-.34-.19-.71-.3-1.35-.3-.77,0-1.23.37-1.23,1.03,0,.78.43,1.12,1.07,1.12.68,0,1.19-.35,1.51-.79Z" fill="#eff4f5"/><path d="m167.98,61.86c0,.29-.24.53-.52.53-.31,0-.55-.24-.55-.53s.24-.54.55-.54c.28,0,.52.24.52.54Zm-.16,6.72h-.75v-5.25h.75v5.25Z" fill="#eff4f5"/><path d="m170.33,68.58h-.75v-6.87l.75-.42v7.29Z" fill="#eff4f5"/><rect x="105.71" y="81.47" width="109.59" height="25.24" fill="#2e3553"/><path d="m116.73,97.94h-4.24v-7h.78v6.29h3.46v.71Z" fill="#eff4f5"/><path d="m122.03,95.16c0,.18,0,.29-.03.41h-3.5c.07,1.12.6,1.83,1.46,1.83.61,0,.97-.18,1.45-.5l.35.54c-.63.4-1.09.61-1.88.61-.96,0-2.13-.7-2.13-2.76,0-1.67.92-2.71,2.17-2.71,1.37,0,2.11,1.08,2.11,2.58Zm-.7-.2c-.06-1.02-.5-1.73-1.42-1.73-.78,0-1.32.56-1.41,1.73h2.83Z" fill="#eff4f5"/><path d="m127.43,95.16c0,.18,0,.29-.03.41h-3.5c.07,1.12.6,1.83,1.46,1.83.61,0,.97-.18,1.45-.5l.35.54c-.63.4-1.09.61-1.88.61-.96,0-2.13-.7-2.13-2.76,0-1.67.92-2.71,2.17-2.71,1.37,0,2.11,1.08,2.11,2.58Zm-.7-.2c-.06-1.02-.5-1.73-1.42-1.73-.78,0-1.32.56-1.41,1.73h2.83Z" fill="#eff4f5"/><path d="m131.7,92.71l-.19.76c-.21-.12-.44-.2-.79-.2-.73,0-1.14.59-1.14,1.59v3.08h-.75v-5.25h.75v.65c.24-.42.74-.76,1.3-.76.39,0,.64.05.82.13Z" fill="#eff4f5"/><path d="m136.55,97.47c0,1.58-.71,2.34-2.66,2.4l-.24-.57c1.75-.05,2.15-.51,2.15-1.73v-.27c-.37.4-.87.75-1.58.75-1.05,0-1.88-.8-1.88-2.65s.88-2.82,1.98-2.82c.66,0,1.11.28,1.48.7v-.59h.75v4.78Zm-.75-.83v-2.62c-.29-.44-.8-.79-1.42-.79-.87,0-1.3.75-1.3,2.16,0,1.32.5,2.01,1.33,2.01.56,0,1.02-.3,1.39-.76Z" fill="#eff4f5"/><path d="m139.18,91.22c0,.29-.24.53-.52.53-.31,0-.55-.24-.55-.53s.24-.54.55-.54c.28,0,.52.24.52.54Zm-.16,6.72h-.75v-5.25h.75v5.25Z" fill="#eff4f5"/><path d="m144.72,95.16c0,.18,0,.29-.03.41h-3.5c.07,1.12.6,1.83,1.46,1.83.61,0,.97-.18,1.45-.5l.35.54c-.63.4-1.09.61-1.88.61-.96,0-2.13-.7-2.13-2.76,0-1.67.92-2.71,2.17-2.71,1.37,0,2.11,1.08,2.11,2.58Zm-.7-.2c-.06-1.02-.5-1.73-1.42-1.73-.78,0-1.32.56-1.41,1.73h2.83Z" fill="#eff4f5"/><path d="m148.99,92.71l-.19.76c-.21-.12-.44-.2-.79-.2-.73,0-1.14.59-1.14,1.59v3.08h-.75v-5.25h.75v.65c.24-.42.74-.76,1.3-.76.39,0,.64.05.82.13Z" fill="#eff4f5"/><path d="m151.16,91.22c0,.29-.24.53-.52.53-.31,0-.55-.24-.55-.53s.24-.54.55-.54c.28,0,.52.24.52.54Zm-.16,6.72h-.75v-5.25h.75v5.25Z" fill="#eff4f5"/><path d="m156.63,97.47c0,1.58-.71,2.34-2.66,2.4l-.24-.57c1.75-.05,2.15-.51,2.15-1.73v-.27c-.37.4-.87.75-1.58.75-1.05,0-1.88-.8-1.88-2.65s.88-2.82,1.98-2.82c.66,0,1.11.28,1.48.7v-.59h.75v4.78Zm-.75-.83v-2.62c-.29-.44-.8-.79-1.42-.79-.87,0-1.3.75-1.3,2.16,0,1.32.5,2.01,1.33,2.01.56,0,1.02-.3,1.39-.76Z" fill="#eff4f5"/><rect x="105.71" y="111.25" width="109.59" height="25.24" fill="#2e3553"/><path d="m116.79,125.88c0,1.1-.86,1.95-2.32,1.95-.95,0-1.8-.41-2.35-.97l.52-.58c.53.51,1.14.84,1.86.84.93,0,1.51-.46,1.51-1.2,0-.65-.39-1.02-1.67-1.48-1.51-.54-2.02-1.03-2.02-2.04,0-1.12.88-1.79,2.19-1.79.94,0,1.54.28,2.13.75l-.5.61c-.51-.42-.98-.65-1.68-.65-.96,0-1.36.48-1.36,1.03,0,.58.26.91,1.66,1.41,1.55.56,2.03,1.08,2.03,2.12Z" fill="#eff4f5"/><path d="m120.46,123.1h-1.3v3.42c0,.47.13.63.53.63.3,0,.5-.05.74-.15l-.05.65c-.29.12-.57.18-.97.18-.65,0-1-.32-1-1.19v-3.54h-.65v-.63h.65v-1.62l.75-.42v2.04h1.3v.63Z" fill="#eff4f5"/><path d="m124.79,122.49l-.19.76c-.21-.12-.44-.2-.79-.2-.73,0-1.14.59-1.14,1.59v3.08h-.75v-5.25h.75v.65c.24-.42.74-.76,1.3-.76.39,0,.64.05.82.13Z" fill="#eff4f5"/><path d="m130,127.72h-.75v-.64c-.3.44-.79.75-1.45.75-1.11,0-1.84-.65-1.84-2.16v-3.2h.75v3.07c0,1.13.4,1.64,1.24,1.64.73,0,1.3-.49,1.3-1.64v-3.07h.75v5.25Z" fill="#eff4f5"/><path d="m135.3,122.98l-.45.56c-.38-.34-.73-.53-1.26-.53-.82,0-1.45.74-1.45,2.05s.55,2.12,1.48,2.12c.51,0,.85-.21,1.21-.56l.45.48c-.44.45-.95.73-1.69.73-1.15,0-2.21-.88-2.21-2.71,0-1.94,1.16-2.76,2.26-2.76.71,0,1.25.26,1.66.62Z" fill="#eff4f5"/><path d="m138.87,123.1h-1.3v3.42c0,.47.13.63.53.63.3,0,.5-.05.74-.15l-.05.65c-.29.12-.57.18-.97.18-.65,0-1-.32-1-1.19v-3.54h-.65v-.63h.65v-1.62l.75-.42v2.04h1.3v.63Z" fill="#eff4f5"/><path d="m144.26,127.72h-.75v-.64c-.3.44-.79.75-1.45.75-1.11,0-1.84-.65-1.84-2.16v-3.2h.75v3.07c0,1.13.4,1.64,1.24,1.64.73,0,1.3-.49,1.3-1.64v-3.07h.75v5.25Z" fill="#eff4f5"/><path d="m148.79,122.49l-.19.76c-.21-.12-.44-.2-.79-.2-.73,0-1.14.59-1.14,1.59v3.08h-.75v-5.25h.75v.65c.24-.42.74-.76,1.3-.76.39,0,.64.05.82.13Z" fill="#eff4f5"/><path d="m153.74,124.94c0,.18,0,.29-.03.41h-3.5c.07,1.12.6,1.83,1.46,1.83.61,0,.97-.18,1.45-.5l.35.54c-.63.4-1.09.61-1.88.61-.96,0-2.13-.7-2.13-2.76,0-1.67.92-2.71,2.17-2.71,1.37,0,2.11,1.08,2.11,2.58Zm-.7-.2c-.06-1.02-.5-1.73-1.42-1.73-.78,0-1.32.56-1.41,1.73h2.83Z" fill="#eff4f5"/><path d="m159.14,124.94c0,.18,0,.29-.03.41h-3.5c.07,1.12.6,1.83,1.46,1.83.61,0,.97-.18,1.45-.5l.35.54c-.63.4-1.09.61-1.88.61-.96,0-2.13-.7-2.13-2.76,0-1.67.92-2.71,2.17-2.71,1.37,0,2.11,1.08,2.11,2.58Zm-.7-.2c-.06-1.02-.5-1.73-1.42-1.73-.78,0-1.32.56-1.41,1.73h2.83Z" fill="#eff4f5"/><path d="m161.35,127.72h-.75v-6.87l.75-.42v7.29Z" fill="#eff4f5"/><rect x="105.71" y="140.12" width="109.59" height="25.24" fill="#2e3553"/><path d="m116.87,156.58h-4.38v-7h4.23v.71h-3.45v2.2h2v.71h-2v2.67h3.6v.71Z" fill="#eff4f5"/><path d="m120.36,150.12c-.17-.08-.37-.12-.61-.12-.31,0-.54.11-.54.55v.78h1.03v.63h-1.03v4.62h-.75v-4.62h-.72v-.63h.72v-.72c0-.94.51-1.29,1.24-1.29.3,0,.48.03.66.09v.71Z" fill="#eff4f5"/><path d="m123.77,150.12c-.17-.08-.37-.12-.61-.12-.31,0-.54.11-.54.55v.78h1.03v.63h-1.03v4.62h-.75v-4.62h-.72v-.63h.72v-.72c0-.94.51-1.29,1.24-1.29.3,0,.48.03.66.09v.71Z" fill="#eff4f5"/><path d="m125.99,149.86c0,.29-.24.53-.52.53-.31,0-.55-.24-.55-.53s.24-.54.55-.54c.28,0,.52.24.52.54Zm-.16,6.72h-.75v-5.25h.75v5.25Z" fill="#eff4f5"/><path d="m131.17,151.84l-.45.56c-.38-.34-.73-.53-1.26-.53-.82,0-1.45.74-1.45,2.05s.55,2.12,1.48,2.12c.51,0,.85-.21,1.21-.56l.45.48c-.44.45-.95.73-1.69.73-1.15,0-2.21-.88-2.21-2.71,0-1.94,1.16-2.76,2.26-2.76.71,0,1.25.26,1.66.62Z" fill="#eff4f5"/><path d="m133.45,149.86c0,.29-.24.53-.52.53-.31,0-.55-.24-.55-.53s.24-.54.55-.54c.28,0,.52.24.52.54Zm-.16,6.72h-.75v-5.25h.75v5.25Z" fill="#eff4f5"/><path d="m138.99,153.8c0,.18,0,.29-.03.41h-3.5c.07,1.12.6,1.83,1.46,1.83.61,0,.97-.18,1.45-.5l.35.54c-.63.4-1.09.61-1.88.61-.96,0-2.13-.7-2.13-2.76,0-1.67.92-2.71,2.17-2.71,1.37,0,2.11,1.08,2.11,2.58Zm-.7-.2c-.06-1.02-.5-1.73-1.42-1.73-.78,0-1.32.56-1.41,1.73h2.83Z" fill="#eff4f5"/><path d="m144.43,156.58h-.75v-3.07c0-1.13-.4-1.64-1.24-1.64-.73,0-1.3.49-1.3,1.64v3.07h-.75v-5.25h.75v.64c.3-.44.79-.75,1.45-.75,1.11,0,1.84.65,1.84,2.16v3.2Z" fill="#eff4f5"/><path d="m148.27,151.96h-1.3v3.42c0,.47.13.63.53.63.3,0,.5-.05.74-.15l-.05.65c-.29.12-.57.18-.97.18-.65,0-1-.32-1-1.19v-3.54h-.65v-.63h.65v-1.62l.75-.42v2.04h1.3v.63Z" fill="#eff4f5"/><rect x="105.71" y="168.98" width="109.59" height="25.24" fill="#2e3553"/><path d="m118,181.94c0,2.11-1.18,3.62-2.92,3.62s-2.89-1.49-2.89-3.6,1.17-3.62,2.91-3.62,2.9,1.49,2.9,3.6Zm-.78.02c0-1.76-.93-2.91-2.15-2.91s-2.1,1.13-2.1,2.89.92,2.91,2.14,2.91,2.11-1.13,2.11-2.89Z" fill="#eff4f5"/><path d="m123.49,185.45h-.75v-3.07c0-1.13-.4-1.64-1.24-1.64-.73,0-1.3.49-1.3,1.64v3.07h-.75v-5.25h.75v.64c.3-.44.79-.75,1.45-.75,1.11,0,1.84.65,1.84,2.16v3.2Z" fill="#eff4f5"/><path d="m129.05,185.45h-.75v-.64c-.37.4-.87.75-1.58.75-1.05,0-1.88-.8-1.88-2.65s.88-2.82,1.98-2.82c.66,0,1.11.28,1.48.7v-2.21l.75-.42v7.29Zm-.75-1.3v-2.62c-.29-.44-.8-.79-1.42-.79-.87,0-1.3.75-1.3,2.16,0,1.32.5,2.01,1.33,2.01.56,0,1.02-.3,1.39-.76Z" fill="#eff4f5"/><path d="m134.71,182.67c0,.18,0,.29-.03.41h-3.5c.07,1.12.6,1.83,1.46,1.83.61,0,.97-.18,1.45-.5l.35.54c-.63.4-1.09.61-1.88.61-.96,0-2.13-.7-2.13-2.76,0-1.67.92-2.71,2.17-2.71,1.37,0,2.11,1.08,2.11,2.58Zm-.7-.2c-.06-1.02-.5-1.73-1.42-1.73-.78,0-1.32.56-1.41,1.73h2.83Z" fill="#eff4f5"/><path d="m138.98,180.22l-.19.76c-.21-.12-.44-.2-.79-.2-.73,0-1.14.59-1.14,1.59v3.08h-.75v-5.25h.75v.65c.24-.42.74-.76,1.3-.76.39,0,.64.05.82.13Z" fill="#eff4f5"/><path d="m143.43,185.45h-3.72v-.55l2.87-4.07h-2.64v-.63h3.49v.55l-2.87,4.07h2.87v.63Z" fill="#eff4f5"/><path d="m149.04,182.79c0,1.78-1.02,2.77-2.3,2.77s-2.26-.95-2.26-2.73,1.02-2.74,2.3-2.74,2.26.92,2.26,2.7Zm-.75.02c0-1.38-.62-2.07-1.53-2.07s-1.52.69-1.52,2.07.61,2.1,1.52,2.1,1.53-.72,1.53-2.1Z" fill="#eff4f5"/><path d="m154.42,182.67c0,.18,0,.29-.03.41h-3.5c.07,1.12.6,1.83,1.46,1.83.61,0,.97-.18,1.45-.5l.35.54c-.63.4-1.09.61-1.88.61-.96,0-2.13-.7-2.13-2.76,0-1.67.92-2.71,2.17-2.71,1.37,0,2.11,1.08,2.11,2.58Zm-.7-.2c-.06-1.02-.5-1.73-1.42-1.73-.78,0-1.32.56-1.41,1.73h2.83Z" fill="#eff4f5"/><path d="m155.83,185.45v-6.87l.75-.42v4.8l.21-.32,1.72-2.44h.84l-1.38,1.86,1.66,3.39h-.81l-1.33-2.76-.91,1.25v1.51h-.75Z" fill="#eff4f5"/><path d="m164.62,182.67c0,.18,0,.29-.03.41h-3.5c.07,1.12.6,1.83,1.46,1.83.61,0,.97-.18,1.45-.5l.35.54c-.63.4-1.09.61-1.88.61-.96,0-2.13-.7-2.13-2.76,0-1.67.92-2.71,2.17-2.71,1.37,0,2.11,1.08,2.11,2.58Zm-.7-.2c-.06-1.02-.5-1.73-1.42-1.73-.78,0-1.32.56-1.41,1.73h2.83Z" fill="#eff4f5"/><path d="m170.06,185.45h-.75v-3.07c0-1.13-.4-1.64-1.24-1.64-.73,0-1.3.49-1.3,1.64v3.07h-.75v-5.25h.75v.64c.3-.44.79-.75,1.45-.75,1.11,0,1.84.65,1.84,2.16v3.2Z" fill="#eff4f5"/><path d="m175.62,185.45h-.75v-.64c-.37.4-.87.75-1.58.75-1.05,0-1.88-.8-1.88-2.65s.88-2.82,1.98-2.82c.66,0,1.11.28,1.48.7v-2.21l.75-.42v7.29Zm-.75-1.3v-2.62c-.29-.44-.8-.79-1.42-.79-.87,0-1.3.75-1.3,2.16,0,1.32.5,2.01,1.33,2.01.56,0,1.02-.3,1.39-.76Z" fill="#eff4f5"/></g></svg>