<svg width="116" height="115" viewBox="0 0 116 115" fill="none" xmlns="http://www.w3.org/2000/svg">
<path d="M115.4 57.3818C115.4 49.8464 113.916 42.3849 111.032 35.4224C108.148 28.4612 103.922 22.1346 98.5936 16.8069C93.2651 11.4777 86.9393 7.25117 79.9772 4.36808C73.0156 1.48355 65.5537 0 58.0183 0V11.4764C64.0468 11.4764 70.0163 12.6643 75.5858 14.9703C81.1552 17.2776 86.2157 20.6594 90.4786 24.9224C94.741 29.184 98.1225 34.2456 100.429 39.8143C102.737 45.3843 103.924 51.3539 103.924 57.3818H115.4Z" fill="#2E3553"/>
<path d="M0.636475 45.9055V17.2146C0.636475 14.0457 3.20557 11.4764 6.37466 11.4764H35.0656C38.2346 11.4764 40.8037 14.0457 40.8037 17.2146V40.1673C40.8037 43.3362 38.2346 45.9055 35.0656 45.9055H23.5892C23.5892 71.2579 44.1418 91.8109 69.4947 91.8109V80.3346C69.4947 77.1659 72.0636 74.5964 75.2328 74.5964H98.1856C101.355 74.5964 103.924 77.1659 103.924 80.3346V109.025C103.924 112.194 101.355 114.764 98.1856 114.764H69.4947C31.4654 114.764 0.636475 83.9347 0.636475 45.9055Z" fill="#2E3553"/>
<path d="M89.8268 44.2061C91.5568 48.3837 92.4474 52.8612 92.4474 57.3818H82.1187C82.1187 54.2172 81.4955 51.083 80.2842 48.1594C79.0728 45.2344 77.298 42.5783 75.0596 40.3409C72.8217 38.1023 70.1655 36.3273 67.2413 35.1155C64.3171 33.9051 61.1829 33.2817 58.0183 33.2817V22.9527C62.5394 22.9527 67.0164 23.8437 71.1937 25.5738C75.3706 27.304 79.1664 29.8397 82.3631 33.0365C85.5604 36.2334 88.0967 40.0286 89.8268 44.2061Z" fill="#2E3553"/>
</svg>
