<svg width="115" height="92" viewBox="0 0 115 92" fill="none" xmlns="http://www.w3.org/2000/svg">
<path fill-rule="evenodd" clip-rule="evenodd" d="M0.0622906 6.37576C0.0622906 2.85455 2.91678 0 6.43805 0H108.388C111.909 0 114.764 2.85455 114.764 6.37576V78.5762C114.764 85.6188 109.055 91.3277 102.012 91.3277H12.7515C5.70904 91.3277 0 85.6188 0 78.5762V8.4429C0 8.13929 0.0212307 7.84065 0.0622906 7.54832V6.37576ZM12.7515 20.5539V78.5762H102.012V20.5561L70.908 51.6603C63.4381 59.1301 51.3274 59.1301 43.8579 51.6603L12.7515 20.5539ZM22.7762 12.5453H91.9894L61.8914 42.6437C59.4017 45.1334 55.3645 45.1334 52.8748 42.6437L22.7762 12.5453Z" fill="#2E3553"/>
</svg>
