<?xml version="1.0" encoding="UTF-8"?><svg id="Layer_2" xmlns="http://www.w3.org/2000/svg" xmlns:xlink="http://www.w3.org/1999/xlink" viewBox="0 0 196.08 180.43"><defs><linearGradient id="New_Gradient_Swatch_copy_2" x1="110.22" y1="111.8" x2="160.39" y2="111.8" gradientUnits="userSpaceOnUse"><stop offset="0" stop-color="#c49179"/><stop offset=".55" stop-color="#a37865"/><stop offset="1" stop-color="#5e4538"/></linearGradient><linearGradient id="New_Gradient_Swatch_copy_2-2" x1="59.79" y1="120.57" x2="166.23" y2="120.57" xlink:href="#New_Gradient_Swatch_copy_2"/><linearGradient id="linear-gradient" x1="149.66" y1="93.07" x2="146.5" y2="75.8" gradientUnits="userSpaceOnUse"><stop offset=".17" stop-color="#c49179"/><stop offset=".55" stop-color="#a37865"/><stop offset="1" stop-color="#5e4538"/></linearGradient><linearGradient id="linear-gradient-2" x1="127.49" y1="63.68" x2="129.39" y2="84.14" gradientUnits="userSpaceOnUse"><stop offset="0" stop-color="#c49179"/><stop offset=".39" stop-color="#a37865"/></linearGradient><linearGradient id="linear-gradient-3" x1="144.7" y1="54.01" x2="152.49" y2="137.91" gradientUnits="userSpaceOnUse"><stop offset=".2" stop-color="#c49179"/><stop offset=".61" stop-color="#a37865"/></linearGradient><linearGradient id="linear-gradient-4" x1="2123.33" y1="66.08" x2="2130.7" y2="71.69" gradientTransform="translate(2267.9) rotate(-180) scale(1 -1)" xlink:href="#linear-gradient-3"/><linearGradient id="New_Gradient_Swatch_copy_3" x1="411.05" y1="302.75" x2="429.29" y2="359.94" gradientTransform="translate(-139.56 -400.03) rotate(18.48)" gradientUnits="userSpaceOnUse"><stop offset=".17" stop-color="#401e10"/><stop offset=".56" stop-color="#1f0d05"/><stop offset=".93" stop-color="#120703"/></linearGradient><linearGradient id="linear-gradient-5" x1="88.61" y1="114.95" x2="108.23" y2="114.95" gradientTransform="translate(-5.33 3.46) rotate(97.36) scale(1 -1)" gradientUnits="userSpaceOnUse"><stop offset="0" stop-color="#c49179"/><stop offset=".78" stop-color="#a37865"/><stop offset="1" stop-color="#5e4538"/></linearGradient></defs><g id="Layer_3"><polygon points="7.08 119.34 7.3 133.3 3.99 132.04 3.66 117.67 7.08 119.34" fill="#ffdddc"/><polygon points="7.3 133.3 10.8 131.34 10.77 120.48 7.08 119.34 7.3 133.3" fill="#e4a7a3"/><polygon points="55.22 147.19 54.63 161.14 51.39 159.69 51.9 145.33 55.22 147.19" fill="#ffdddc"/><polygon points="54.63 161.14 58.24 159.39 58.84 148.54 55.22 147.19 54.63 161.14" fill="#e4a7a3"/><polygon points="68.74 155.56 190.7 109.71 191.89 99.71 67.94 145.09 68.74 155.56" fill="#e4a7a3"/><polygon points="67.94 145.09 0 106.41 124.2 60.63 191.89 99.71 67.94 145.09" fill="#ffdddc"/><polygon points="68.74 155.56 67.94 145.09 0 106.41 0 116.31 68.74 155.56" fill="#ffdddc"/><path d="m64.18,94.77l17.86-9.65c1.19-.64,2.6-.97,3.89-.91l17.89.87c3.84.19,4.34,3.49.83,5.43l-18.03,9.98c-1.24.68-2.73,1.03-4.06.94l-17.72-1.2c-3.78-.26-4.18-3.56-.65-5.46Z" fill="#2e3553"/><path d="m83.7,78.3l-4.53,1.91c-.62.26-1.02.87-1.02,1.54v7.51c0,.58.3,1.12.8,1.43l1.75,1.07c.48.29,1.08.32,1.59.08l4.22-2.02c.58-.28.95-.86.95-1.51v-8.28c0-.84-.63-1.55-1.46-1.66l-1.45-.18c-.29-.04-.58,0-.85.12Z" fill="#2e3553"/><path d="m81.49,89.41l.02-6.53c0-.78-.54-1.46-1.3-1.63h-.02c-1.04-.24-2.03.56-2.03,1.62v6.53c0,.58.3,1.12.8,1.43h0c1.11.67,2.53-.12,2.53-1.42Z" fill="#5b5b99"/><path d="m43.13,94.71l-1.93-61.49c-.02-.7.39-1.34,1.04-1.6L117.72,1.12c1.11-.45,2.31.38,2.29,1.58l-1.02,61.15c-.01.66-.41,1.25-1.02,1.51l-72.53,30.84c-1.08.46-2.28-.31-2.32-1.48Z" fill="#2e3553" stroke="#e4a7a3" stroke-miterlimit="10" stroke-width="2"/><polygon points="112.69 41.97 50.37 66.79 50.37 62.66 112.69 37.8 112.69 41.97" fill="#eff4f5"/><polygon points="113.21 48.03 50.9 73.02 50.9 68.89 113.21 44.04 113.21 48.03" fill="#eff4f5"/><polygon points="113.21 53.12 50.9 78.92 50.9 74.8 113.21 49.94 113.21 53.12" fill="#eff4f5"/><polygon points="73.14 27.95 50.37 36.88 50.37 60.46 73.14 51.22 73.14 27.95" fill="#6f7de2"/><polygon points="111.93 13.12 74.74 27.04 74.74 50.62 111.93 35.79 111.93 13.12" fill="#ffdddc"/><path d="m69.98,121.28c-1.72-1.03-3.87-1.32-4.11-4.52l-.33-.91,24.87,14.21-.55,3.07-19.88-11.85Z" fill="#d8d8d8"/><polygon points="65.56 115.86 124.15 94.45 147.75 108.65 148.11 111.43 89.76 133.13 90.32 130.06 65.56 115.86" fill="#eff4f5"/><polygon points="90.13 130.22 147.83 108.73 148.19 111.51 89.78 133.13 90.13 130.22" fill="#b4b4b5"/><path d="m82.03,114.7l-2.47.99c-.51.2-1.25.15-1.66-.11l-2.07-1.37c-.4-.27-.29-.63.24-.82l2.6-.9c.48-.17,1.18-.1,1.55.15l1.94,1.27c.38.25.32.6-.14.78Z" fill="#e4a7a3"/><path d="m86.04,117.18l-2.47.99c-.51.2-1.25.15-1.66-.11l-2.07-1.37c-.4-.27-.29-.63.24-.82l2.6-.9c.48-.17,1.18-.1,1.55.15l1.94,1.27c.38.25.32.6-.14.78Z" fill="#e4a7a3"/><path d="m90.06,119.51l-2.47.99c-.51.2-1.25.15-1.66-.11l-2.07-1.37c-.4-.27-.29-.63.24-.82l2.6-.9c.48-.17,1.18-.1,1.55.15l1.94,1.27c.38.25.32.6-.14.78Z" fill="#e4a7a3"/><path d="m94.17,121.77l-2.47.99c-.51.2-1.25.15-1.66-.11l-2.07-1.37c-.4-.27-.29-.63.24-.82l2.6-.9c.48-.17,1.18-.1,1.55.15l1.94,1.27c.38.25.32.6-.14.78Z" fill="#e4a7a3"/><path d="m98.94,120.07l-2.47.99c-.51.2-1.25.15-1.66-.11l-2.07-1.37c-.4-.27-.29-.63.24-.82l2.6-.9c.48-.17,1.18-.1,1.55.15l1.94,1.27c.38.25.32.6-.14.78Z" fill="#e4a7a3"/><path d="m102.85,122.66l-2.47.99c-.51.2-1.25.15-1.66-.11l-2.07-1.37c-.4-.27-.29-.63.24-.82l2.6-.9c.48-.17,1.18-.1,1.55.15l1.94,1.27c.38.25.32.6-.14.78Z" fill="#e4a7a3"/><path d="m97.99,124.37l-2.47.99c-.51.2-1.25.15-1.66-.11l-2.07-1.37c-.4-.27-.29-.63.24-.82l2.6-.9c.48-.17,1.18-.1,1.55.15l1.94,1.27c.38.25.32.6-.14.78Z" fill="#e4a7a3"/><path d="m103.83,118.6l-2.47.99c-.51.2-1.25.15-1.66-.11l-2.07-1.37c-.4-.27-.29-.63.24-.82l2.6-.9c.48-.17,1.18-.1,1.55.15l1.94,1.27c.38.25.32.6-.14.78Z" fill="#e4a7a3"/><path d="m107.63,120.96l-2.47.99c-.51.2-1.25.15-1.66-.11l-2.07-1.37c-.4-.27-.29-.63.24-.82l2.6-.9c.48-.17,1.18-.1,1.55.15l1.94,1.27c.38.25.32.6-.14.78Z" fill="#e4a7a3"/><path d="m108.48,116.9l-2.47.99c-.51.2-1.25.15-1.66-.11l-2.07-1.37c-.4-.27-.29-.63.24-.82l2.6-.9c.48-.17,1.18-.1,1.55.15l1.94,1.27c.38.25.32.6-.14.78Z" fill="#e4a7a3"/><path d="m113.05,115.06l-2.47.99c-.51.2-1.25.15-1.66-.11l-2.07-1.37c-.4-.27-.29-.63.24-.82l2.6-.9c.48-.17,1.18-.1,1.55.15l1.94,1.27c.38.25.32.6-.14.78Z" fill="#e4a7a3"/><path d="m117.41,113.28l-2.47.99c-.51.2-1.25.15-1.66-.11l-2.07-1.37c-.4-.27-.29-.63.24-.82l2.6-.9c.48-.17,1.18-.1,1.55.15l1.94,1.27c.38.25.32.6-.14.78Z" fill="#e4a7a3"/><path d="m121.91,111.58l-2.47.99c-.51.2-1.25.15-1.66-.11l-2.07-1.37c-.4-.27-.29-.63.24-.82l2.6-.9c.48-.17,1.18-.1,1.55.15l1.94,1.27c.38.25.32.6-.14.78Z" fill="#e4a7a3"/><path d="m126.65,110.01l-2.47.99c-.51.2-1.25.15-1.66-.11l-2.07-1.37c-.4-.27-.29-.63.24-.82l2.6-.9c.48-.17,1.18-.1,1.55.15l1.94,1.27c.38.25.32.6-.14.78Z" fill="#e4a7a3"/><path d="m134.48,110.72l-2.47.99c-.51.2-1.25.15-1.66-.11l-2.07-1.37c-.4-.27-.29-.63.24-.82l2.6-.9c.48-.17,1.18-.1,1.55.15l1.94,1.27c.38.25.32.6-.14.78Z" fill="#e4a7a3"/><path d="m139.26,109.02l-2.47.99c-.51.2-1.25.15-1.66-.11l-2.07-1.37c-.4-.27-.29-.63.24-.82l2.6-.9c.48-.17,1.18-.1,1.55.15l1.94,1.27c.38.25.32.6-.14.78Z" fill="#e4a7a3"/><path d="m131.07,108.17l-2.47.99c-.51.2-1.25.15-1.66-.11l-2.07-1.37c-.4-.27-.29-.63.24-.82l2.6-.9c.48-.17,1.18-.1,1.55.15l1.94,1.27c.38.25.32.6-.14.78Z" fill="#e4a7a3"/><path d="m135.82,106.56l-2.47.99c-.51.2-1.25.15-1.66-.11l-2.07-1.37c-.4-.27-.29-.63.24-.82l2.6-.9c.48-.17,1.18-.1,1.55.15l1.94,1.27c.38.25.32.6-.14.78Z" fill="#e4a7a3"/><path d="m94.89,117.73l-2.47.99c-.51.2-1.25.15-1.66-.11l-2.07-1.37c-.4-.27-.29-.63.24-.82l2.6-.9c.48-.17,1.18-.1,1.55.15l1.94,1.27c.38.25.32.6-.14.78Z" fill="#e4a7a3"/><path d="m99.78,116.07l-2.47.99c-.51.2-1.25.15-1.66-.11l-2.07-1.37c-.4-.27-.29-.63.24-.82l2.6-.9c.48-.17,1.18-.1,1.55.15l1.94,1.27c.38.25.32.6-.14.78Z" fill="#e4a7a3"/><path d="m104.32,114.32l-2.47.99c-.51.2-1.25.15-1.66-.11l-2.07-1.37c-.4-.27-.29-.63.24-.82l2.6-.9c.48-.17,1.18-.1,1.55.15l1.94,1.27c.38.25.32.6-.14.78Z" fill="#e4a7a3"/><path d="m108.93,112.62l-2.47.99c-.51.2-1.25.15-1.66-.11l-2.07-1.37c-.4-.27-.29-.63.24-.82l2.6-.9c.48-.17,1.18-.1,1.55.15l1.94,1.27c.38.25.32.6-.14.78Z" fill="#e4a7a3"/><path d="m113.49,110.91l-2.47.99c-.51.2-1.25.15-1.66-.11l-2.07-1.37c-.4-.27-.29-.63.24-.82l2.6-.9c.48-.17,1.18-.1,1.55.15l1.94,1.27c.38.25.32.6-.14.78Z" fill="#e4a7a3"/><path d="m118.06,109.21l-2.47.99c-.51.2-1.25.15-1.66-.11l-2.07-1.37c-.4-.27-.29-.63.24-.82l2.6-.9c.48-.17,1.18-.1,1.55.15l1.94,1.27c.38.25.32.6-.14.78Z" fill="#e4a7a3"/><path d="m122.74,107.63l-2.47.99c-.51.2-1.25.15-1.66-.11l-2.07-1.37c-.4-.27-.29-.63.24-.82l2.6-.9c.48-.17,1.18-.1,1.55.15l1.94,1.27c.38.25.32.6-.14.78Z" fill="#e4a7a3"/><path d="m127.08,105.8l-2.47.99c-.51.2-1.25.15-1.66-.11l-2.07-1.37c-.4-.27-.29-.63.24-.82l2.6-.9c.48-.17,1.18-.1,1.55.15l1.94,1.27c.38.25.32.6-.14.78Z" fill="#e4a7a3"/><path d="m131.68,104.09l-2.47.99c-.51.2-1.25.15-1.66-.11l-2.07-1.37c-.4-.27-.29-.63.24-.82l2.6-.9c.48-.17,1.18-.1,1.55.15l1.94,1.27c.38.25.32.6-.14.78Z" fill="#e4a7a3"/><path d="m90.82,115.47l-2.47.99c-.51.2-1.25.15-1.66-.11l-2.07-1.37c-.4-.27-.29-.63.24-.82l2.6-.9c.48-.17,1.18-.1,1.55.15l1.94,1.27c.38.25.32.6-.14.78Z" fill="#e4a7a3"/><path d="m95.53,113.81l-2.47.99c-.51.2-1.25.15-1.66-.11l-2.07-1.37c-.4-.27-.29-.63.24-.82l2.6-.9c.48-.17,1.18-.1,1.55.15l1.94,1.27c.38.25.32.6-.14.78Z" fill="#e4a7a3"/><path d="m100.16,112.04l-2.47.99c-.51.2-1.25.15-1.66-.11l-2.07-1.37c-.4-.27-.29-.63.24-.82l2.6-.9c.48-.17,1.18-.1,1.55.15l1.94,1.27c.38.25.32.6-.14.78Z" fill="#e4a7a3"/><path d="m104.76,110.34l-2.47.99c-.51.2-1.25.15-1.66-.11l-2.07-1.37c-.4-.27-.29-.63.24-.82l2.6-.9c.48-.17,1.18-.1,1.55.15l1.94,1.27c.38.25.32.6-.14.78Z" fill="#e4a7a3"/><path d="m109.31,108.63l-2.47.99c-.51.2-1.25.15-1.66-.11l-2.07-1.37c-.4-.27-.29-.63.24-.82l2.6-.9c.48-.17,1.18-.1,1.55.15l1.94,1.27c.38.25.32.6-.14.78Z" fill="#e4a7a3"/><path d="m113.99,106.93l-2.47.99c-.51.2-1.25.15-1.66-.11l-2.07-1.37c-.4-.27-.29-.63.24-.82l2.6-.9c.48-.17,1.18-.1,1.55.15l1.94,1.27c.38.25.32.6-.14.78Z" fill="#e4a7a3"/><path d="m118.76,105.22l-2.47.99c-.51.2-1.25.15-1.66-.11l-2.07-1.37c-.4-.27-.29-.63.24-.82l2.6-.9c.48-.17,1.18-.1,1.55.15l1.94,1.27c.38.25.32.6-.14.78Z" fill="#e4a7a3"/><path d="m123.24,103.52l-2.47.99c-.51.2-1.25.15-1.66-.11l-2.07-1.37c-.4-.27-.29-.63.24-.82l2.6-.9c.48-.17,1.18-.1,1.55.15l1.94,1.27c.38.25.32.6-.14.78Z" fill="#e4a7a3"/><path d="m127.76,101.81l-2.47.99c-.51.2-1.25.15-1.66-.11l-2.07-1.37c-.4-.27-.29-.63.24-.82l2.6-.9c.48-.17,1.18-.1,1.55.15l1.94,1.27c.38.25.32.6-.14.78Z" fill="#e4a7a3"/><path d="m86.98,113l-2.47.99c-.51.2-1.25.15-1.66-.11l-2.07-1.37c-.4-.27-.29-.63.24-.82l2.6-.9c.48-.17,1.18-.1,1.55.15l1.94,1.27c.38.25.32.6-.14.78Z" fill="#e4a7a3"/><path d="m91.7,111.33l-2.47.99c-.51.2-1.25.15-1.66-.11l-2.07-1.37c-.4-.27-.29-.63.24-.82l2.6-.9c.48-.17,1.18-.1,1.55.15l1.94,1.27c.38.25.32.6-.14.78Z" fill="#e4a7a3"/><path d="m96.34,109.63l-2.47.99c-.51.2-1.25.15-1.66-.11l-2.07-1.37c-.4-.27-.29-.63.24-.82l2.6-.9c.48-.17,1.18-.1,1.55.15l1.94,1.27c.38.25.32.6-.14.78Z" fill="#e4a7a3"/><path d="m100.88,107.92l-2.47.99c-.51.2-1.25.15-1.66-.11l-2.07-1.37c-.4-.27-.29-.63.24-.82l2.6-.9c.48-.17,1.18-.1,1.55.15l1.94,1.27c.38.25.32.6-.14.78Z" fill="#e4a7a3"/><path d="m105.49,106.22l-2.47.99c-.51.2-1.25.15-1.66-.11l-2.07-1.37c-.4-.27-.29-.63.24-.82l2.6-.9c.48-.17,1.18-.1,1.55.15l1.94,1.27c.38.25.32.6-.14.78Z" fill="#e4a7a3"/><path d="m110.22,104.51l-2.47.99c-.51.2-1.25.15-1.66-.11l-2.07-1.37c-.4-.27-.29-.63.24-.82l2.6-.9c.48-.17,1.18-.1,1.55.15l1.94,1.27c.38.25.32.6-.14.78Z" fill="#e4a7a3"/><path d="m114.76,102.84l-2.47.99c-.51.2-1.25.15-1.66-.11l-2.07-1.37c-.4-.27-.29-.63.24-.82l2.6-.9c.48-.17,1.18-.1,1.55.15l1.94,1.27c.38.25.32.6-.14.78Z" fill="#e4a7a3"/><path d="m119.33,101.13l-2.47.99c-.51.2-1.25.15-1.66-.11l-2.07-1.37c-.4-.27-.29-.63.24-.82l2.6-.9c.48-.17,1.18-.1,1.55.15l1.94,1.27c.38.25.32.6-.14.78Z" fill="#e4a7a3"/><path d="m124.05,99.45l-2.47.99c-.51.2-1.25.15-1.66-.11l-2.07-1.37c-.4-.27-.29-.63.24-.82l2.6-.9c.48-.17,1.18-.1,1.55.15l1.94,1.27c.38.25.32.6-.14.78Z" fill="#e4a7a3"/><path d="m129.79,112.93l-18.42,6.83c-.7.26-1.67.21-2.16-.1l-1.44-.93c-.49-.32-.31-.78.4-1.03l18.7-6.62c.57-.2,1.4-.14,1.84.14l1.3.82c.44.28.35.68-.22.89Z" fill="#e4a7a3"/><path d="m150.12,102.85l10.27,10.08-8.88,8.01c-.9.81-2.09,1.22-3.3,1.14-4.71-.35-16.86-1.59-22.28-5.33-.73-.5-1.55-.88-2.39-1.16l-11.53-3.89c-.76-.26-1.19-1.13-.83-1.85.31-.63,1.03-1.02,2.66-.07,3.02,1.76,2.75.58,2.75.58,0,0-2.63-3.12-5.69-4.93s4.99-6.49,8.37-2.06c0,0,5.06,4.96,5.12,7.12,0,0,14.8-2.74,23.06.71l2.68-8.35Z" fill="url(#New_Gradient_Swatch_copy_2)"/><path d="m88.36,118.98s-3.03-3.6-6.56-5.68,6.73-7.66,10.61-2.54c0,0,4.63,6.04,6.36,8.73,0,0,15.61-3.51,25.13.47l3.08-9.62,11.83,11.61-10.23,9.23c-1.04.94-2.41,1.41-3.81,1.31-5.42-.4-19.42-1.83-25.67-6.14-.84-.58-1.78-1.01-2.75-1.34" fill="url(#New_Gradient_Swatch_copy_2-2)"/><path d="m124.63,109.75s1.62-9.43,7.25-15.3c2.49-2.59,8.48-4.53,10.85-4.58,0,0,9.72.62,12-3.12,0,0,6.78-3.44,11.59-.86,5.3,2.85,5.56,17.27,4.85,17.5,0,0-13.73,34.43-30.57,32.01l-.84-11.91c.5,1.68-17.58-3.55-15.13-13.75Z" fill="#e4a7a3"/><path d="m141.38,135.84s-10.37-4.26-18.33,5.68c0,0-13.28,2.77-15.62,14.31,0,0,22.73,2.02,33.95-20Z" fill="#2e3553"/><path d="m105.72,155.73c1.47-.35,17.12,3.3,43.32-30.31,0,0,13.89-25.01,33.97-23.87,0,0,32.01,36.56-4.17,67.82s-73.12-13.64-73.12-13.64Z" fill="#eff4f5"/><path d="m140.44,77.73l11.08-2.27s-.3,8.97,3.39,11.33c0,0-2.54,5.29-11.91,3.59,0,0,.71-8.52-2.56-12.64Z" fill="url(#linear-gradient)"/><path d="m128.62,66.26c-.37-3.38.5-8.55,2.01-9.06.17-.06.32-.01.45.12" fill="none" stroke="#070707" stroke-miterlimit="10"/><path d="m128.93,62.19l-2.52,5.37s-.7,1.84,2.27,2.41l.26-7.78Z" fill="url(#linear-gradient-2)"/><path d="m131.3,79.51s24.01,5.26,30.83-9.38c6.82-14.63-6.82-18.47-6.82-18.47,0,0-13.26-6.97-22.02.36-1.5,1.25-2.64,3.88-3.08,6.66-.28,1.79-1.41,3.33-1.47,5.14l-.45,13.56c-.06.96.63,1.81,1.58,1.94l1.43.2Z" fill="url(#linear-gradient-3)"/><path d="m127.94,63.88c-.08,1.85-.41,3.93-.83,5.37-.56,1.89-1.48,3.28-2.14,1.94-1.45-2.94-.44-11.92,1.69-12.64,1.03-.35,1.4,2.67,1.28,5.33Z" fill="none" stroke="#070707" stroke-miterlimit="10"/><line x1="124.48" y1="63.97" x2="124.48" y2="63.97" fill="none" stroke="#070707" stroke-miterlimit="10"/><line x1="124.48" y1="63.97" x2="124.48" y2="63.97" fill="none" stroke="#070707" stroke-miterlimit="10"/><path d="m124.72,62.5l19.81,3.76s2.53.45-.02,3.11" fill="none" stroke="#070707" stroke-miterlimit="10"/><path d="m140.28,68.51c0,2.51-1.81,4.55.71,4.55s4.55-2.04,4.55-4.55-2.04-4.55-4.55-4.55-.71,2.04-.71,4.55Z" fill="url(#linear-gradient-4)"/><path d="m136.5,48.88c-1.06.74-1.65,3.5-1.25,4.73.84,2.61,2.32,9.28,9.41,10.9,7.91,1.81,3.79,9,1.36,12.65-.59.89-.82,3.26.15,3.7,1.87.85,8.07-2.18,8.19-2.26,1.16-.67,7.47-4.45,8.82-7.55.05-.11.1-.21.17-.3.6-.85,3.76-5.56,3.3-9.96-.51-4.86-2.4-14.59-15.75-15.92-8.21-.82-12.51,2.69-14.4,4.01Z" fill="#1f0d05"/><path d="m173.53,52.9c.59-1.76.17-3.61-.94-4.94.07-.15.13-.31.18-.47.45-1.35.31-2.76-.29-3.95.34-.37.61-.81.78-1.32.64-1.9-.39-3.96-2.29-4.6-.71-.24-1.44-.24-2.1-.06-.48-1.52-1.65-2.79-3.27-3.34-.93-.31-1.88-.34-2.77-.13-.58-1.24-1.64-2.24-3.03-2.71-1.51-.5-3.09-.27-4.34.51-.42-.79-1.13-1.43-2.05-1.74-1.6-.54-3.31.11-4.19,1.47-.21-.1-.42-.2-.65-.27-2.7-.9-5.61.55-6.52,3.25-.16.49-.25.98-.26,1.47-.53.34-.97.83-1.26,1.42-.16-.09-.34-.16-.52-.22-1.9-.64-3.96.39-4.6,2.29-.33.98-.21,2,.24,2.85-.64.43-1.16,1.07-1.42,1.86-.64,1.9.39,3.96,2.29,4.6.18.06.36.1.55.13-.21.25-.39.55-.5.88-.48,1.44.3,3,1.74,3.48.74.25,1.51.16,2.15-.18.4.89,1.16,1.61,2.15,1.95,1.2.4,2.47.14,3.4-.59.17.09.36.18.55.24.1.03.2.06.3.08.13,1.39,1.06,2.64,2.46,3.11.61.2,1.24.23,1.83.12.37.99,1.17,1.81,2.25,2.17,1.35.45,2.77.06,3.71-.87.3.22.64.4,1.01.53,1.49.5,3.08-.03,4-1.2.3.22.63.4,1.01.52,1.9.64,3.96-.39,4.6-2.29.07-.2.11-.4.14-.61,2.44.38,4.86-1.04,5.67-3.45Z" fill="url(#New_Gradient_Swatch_copy_3)"/><path d="m94.86,116.03s1.31.48-.25-3.23c-.84-2-.29-2.77.47-3.03.47-.16,1.46,1.15,2.3,2.53.97,1.6,1.31,3.51.94,5.35l-.65,3.15-2.81-4.78Z" fill="url(#linear-gradient-5)"/><polygon points="42.48 96.14 40.82 93.42 39.03 36.35 40.47 33.79 42.48 96.14" fill="#ffdddc"/><path d="m132.14,53.34s1.83-2.27,3.35-2.83,2.6-2.47,2.6-2.47c0,0-3.31-.15-4.08.62s-3.05,2.71-1.88,4.68Z" fill="#1f0d05"/><path d="m132.68,59.21c-.17-.39-.5-.94-1.09-1.17-.58-.23-1.18-.08-1.58.08l1.78-4.36c.36-.19.9-.41,1.43-.29.77.17,1.1.95,1.24,1.38l-1.78,4.36Z" fill="#1f0d05"/></g></svg>